<svg width="43" height="43" viewBox="0 0 43 43" fill="none" xmlns="http://www.w3.org/2000/svg">
<path fill-rule="evenodd" clip-rule="evenodd" d="M23.5156 34.009L19.4844 34.6016V24.8594H16.7969V21.4805H19.4844C19.4844 21.4805 19.4844 19.7525 19.4844 17.9693C19.4844 16.9454 19.8909 15.9638 20.6151 15.2401C21.3388 14.5159 22.3204 14.1094 23.3443 14.1094H26.2031V16.7969C26.2031 16.7969 25.6475 16.7969 25.0408 16.7969C24.1983 16.7969 23.5156 17.4795 23.5156 18.322V21.5L27.5469 21.4805L26.2031 24.8594H23.5156V34.009Z" fill="#FFFFFC"/>
<path fill-rule="evenodd" clip-rule="evenodd" d="M21.5 36.2812C13.3495 36.2812 6.71875 29.6505 6.71875 21.5C6.71875 13.3495 13.3495 6.71875 21.5 6.71875C29.6505 6.71875 36.2812 13.3495 36.2812 21.5C36.2812 29.6505 29.6505 36.2812 21.5 36.2812ZM21.5 9.40625C14.8316 9.40625 9.40625 14.8316 9.40625 21.5C9.40625 28.1684 14.8316 33.5938 21.5 33.5938C28.1684 33.5938 33.5938 28.1684 33.5938 21.5C33.5938 14.8316 28.1684 9.40625 21.5 9.40625Z" fill="#FFFFFC"/>
</svg>