<svg width="39" height="39" viewBox="0 0 39 39" fill="none" xmlns="http://www.w3.org/2000/svg">
<path d="M19.5 4.87256C15.9423 4.87256 12.3837 5.29513 8.83353 6.13892C7.49614 6.45552 6.45479 7.49818 6.13895 8.83588C4.45191 15.9354 4.45155 23.0668 6.13895 30.1664C6.45539 31.5031 7.49684 32.5445 8.83353 32.861C15.9339 34.5485 23.0661 34.5485 30.1664 32.861C31.5031 32.5445 32.5445 31.5031 32.861 30.1664V30.164C34.5478 23.0652 34.5478 15.9347 32.861 8.83588V8.8335C32.5445 7.4968 31.5031 6.45536 30.1664 6.13892C26.6162 5.29513 23.0577 4.87256 19.5 4.87256ZM19.5 7.30768C22.8648 7.30768 26.2299 7.70824 29.6023 8.50977H29.6046C30.0212 8.60813 30.3918 8.97867 30.4901 9.39526V9.39764C32.0932 16.1423 32.0932 22.8576 30.4901 29.6022V29.6046C30.3918 30.0212 30.0212 30.3918 29.6046 30.4901H29.6023C22.8576 32.0932 16.1423 32.0932 9.39767 30.4901H9.39529C8.97869 30.3917 8.60816 30.0212 8.5098 29.6046V29.6022C6.90675 22.8576 6.90675 16.1423 8.5098 9.39764V9.39526C8.60816 8.97872 8.97869 8.60813 9.39529 8.50977H9.39767C12.77 7.70824 16.1352 7.30768 19.5 7.30768ZM27.4218 9.74994C26.937 9.74994 26.472 9.94254 26.1292 10.2854C25.7863 10.6282 25.5937 11.0932 25.5937 11.5781C25.5937 12.0629 25.7863 12.5279 26.1292 12.8707C26.472 13.2136 26.937 13.4062 27.4218 13.4062C27.9067 13.4062 28.3717 13.2136 28.7145 12.8707C29.0574 12.5279 29.25 12.0629 29.25 11.5781C29.25 11.0932 29.0574 10.6282 28.7145 10.2854C28.3717 9.94254 27.9067 9.74994 27.4218 9.74994ZM19.5 12.1874C17.164 12.1874 15.257 13.1073 14.018 14.5012C12.779 15.895 12.1875 17.7057 12.1875 19.4999C12.1875 21.2942 12.779 23.1049 14.018 24.4987C15.257 25.8926 17.164 26.8124 19.5 26.8124C23.5241 26.8124 26.8125 23.5241 26.8125 19.4999C26.8125 15.4758 23.5241 12.1874 19.5 12.1874ZM19.5 14.6249C22.2068 14.6249 24.375 16.7931 24.375 19.4999C24.375 22.2068 22.2068 24.3749 19.5 24.3749C17.7734 24.3749 16.6336 23.7714 15.8413 22.8801C15.0491 21.9888 14.625 20.7525 14.625 19.4999C14.625 18.2473 15.0491 17.0111 15.8413 16.1198C16.6336 15.2285 17.7734 14.6249 19.5 14.6249Z" fill="#FFFFFC"/>
</svg>